<svg id="chinela_1" data-name="chinela 1" xmlns="http://www.w3.org/2000/svg" viewBox="0 0 25 25"><defs><style>.cls-1{fill:#843800;stroke:#a32e05;stroke-miterlimit:10;}.cls-2{fill:#a32e05;}</style></defs><ellipse class="cls-1" cx="13" cy="6.5" rx="3.5" ry="4"/><ellipse class="cls-1" cx="13" cy="15" rx="5.5" ry="7.5"/><path class="cls-1" d="M13,7.31a3.13,3.13,0,0,0-.45.22l5.85,13.75a2.6,2.6,0,0,0,.47-.16c2.8-1.19,3.75-5.24,2.12-9.06S15.74,6.12,13,7.31Z"/><path class="cls-1" d="M4.64,11.9c-1.78,3.48-1.29,7.33,1.05,8.92L12.5,7.53C9.85,6.56,6.43,8.41,4.64,11.9Z"/><path class="cls-2" d="M9.88,18.08a4.13,4.13,0,0,1,2.3-.65,25.86,25.86,0,0,1,3.05,0c.65,0,.64-1,0-1a23.36,23.36,0,0,0-3.24,0,4.7,4.7,0,0,0-2.61.78.5.5,0,1,0,.5.86Z"/><path class="cls-2" d="M11,14.58l.12-.11c.07-.08-.07,0,0,0l.14-.08s.1,0,0,0a3.25,3.25,0,0,1,.61-.17l.17,0h.09l.34,0a4.33,4.33,0,0,1,.72,0,.5.5,0,0,0,.5-.5.51.51,0,0,0-.5-.5,6,6,0,0,0-1.64.11,2.24,2.24,0,0,0-1.29.64.51.51,0,0,0,0,.71.5.5,0,0,0,.7,0Z"/><path class="cls-2" d="M18.38,8.75h2.43c.38,0,.85.06,1.08-.32s0-.76-.15-1.09A33.31,33.31,0,0,1,20.4,2.91c-.15-.63-1.11-.37-1,.26.2.87.43,1.73.7,2.57.13.41.26.82.41,1.22.07.22.15.44.23.65s.07.19.11.28l.07.18c0,.09,0,.08,0,0l.13-.22,0,0,.23-.12a2.27,2.27,0,0,1-.64,0H18.38a.5.5,0,0,0,0,1Z"/><path class="cls-2" d="M21.76,14.47h.85a.51.51,0,0,0,.35-.15.47.47,0,0,0,.15-.35.51.51,0,0,0-.15-.35.49.49,0,0,0-.35-.15h-.85a.53.53,0,0,0-.36.15.51.51,0,0,0,0,.7.53.53,0,0,0,.36.15Z"/><path class="cls-2" d="M16.55,21l.07,0c-.06,0-.06-.05,0,0s0,0,0,0l0,.06c.05.09,0-.09,0,0l0,.14c0,.06,0,.05,0,0a.22.22,0,0,1,0,.08.45.45,0,0,0,0,.11v.39a6.77,6.77,0,0,1,0,.78c0,.13,0,.26,0,.38s0,.07,0,0,0,.07,0,.11a1.55,1.55,0,0,1,0,.21.51.51,0,0,0,.35.61.51.51,0,0,0,.62-.35,9,9,0,0,0,.13-1.94c0-.53-.05-1.21-.61-1.46a.51.51,0,0,0-.69.17.52.52,0,0,0,.18.69Z"/><path class="cls-2" d="M7.59,19.07c-.37.67-.77,1.34-1.11,2a2.93,2.93,0,0,0-.31,1.13,7.56,7.56,0,0,1-.08,1.06.5.5,0,0,0,1,.26,5.78,5.78,0,0,0,.11-1.1,1.86,1.86,0,0,1,.22-.92c.33-.66.71-1.3,1.07-2s-.55-1.07-.86-.51Z"/><path class="cls-2" d="M4,12.29l-.6,0-.29,0-.16,0h0A11.33,11.33,0,0,1,1.77,12a.5.5,0,1,0-.26,1A11.87,11.87,0,0,0,4,13.29a.51.51,0,0,0,.5-.5.51.51,0,0,0-.5-.5Z"/><path class="cls-2" d="M8.32,7.48a14.49,14.49,0,0,1-1.6-1A4.93,4.93,0,0,1,5.44,5.38a1,1,0,0,1-.24-.66,1.09,1.09,0,0,1,.38-.56L7,2.7A.5.5,0,0,0,6.31,2c-.54.55-1.11,1.08-1.62,1.65a1.71,1.71,0,0,0-.26,2A4.8,4.8,0,0,0,5.92,7.17a14.25,14.25,0,0,0,1.9,1.17c.57.3,1.07-.57.5-.86Z"/><path class="cls-2" d="M12.71,2.36A1,1,0,0,0,12.6,2a1.19,1.19,0,0,0-.16-.23,2.73,2.73,0,0,1-.23-.25l.08.11a.3.3,0,0,1-.06-.11l0,.12a.19.19,0,0,1,0-.07v.19s0,0,0-.06l0,.12a.43.43,0,0,1,0-.07l-.08.1.06-.05-.1.08a.41.41,0,0,1,.11-.07l-.11.05a1.14,1.14,0,0,1,.25-.06.5.5,0,0,0,.3-.23.49.49,0,0,0,.05-.39.5.5,0,0,0-.23-.3l-.12,0a.57.57,0,0,0-.26,0,1.38,1.38,0,0,0-.48.17.8.8,0,0,0-.38.68,1,1,0,0,0,.26.59c.08.09.16.16.23.25l-.07-.1.06.11-.05-.12,0,.09,0-.13h0a.41.41,0,0,0,0,.19.46.46,0,0,0,.11.16.51.51,0,0,0,.35.15.53.53,0,0,0,.36-.15.46.46,0,0,0,.14-.35Z"/><path class="cls-2" d="M14.45,3a2.56,2.56,0,0,0,.4-.22c.24-.16.52-.35.51-.68A1,1,0,0,0,15,1.43a1.69,1.69,0,0,0-.43-.31.51.51,0,0,0-.38-.05.5.5,0,0,0-.3.23.5.5,0,0,0-.05.38.5.5,0,0,0,.23.3,1.53,1.53,0,0,1,.21.14L14.19,2a1.36,1.36,0,0,1,.24.24l-.08-.11.07.11-.05-.12a0,0,0,0,1,0,0l0-.13a0,0,0,0,1,0,0l0-.13h0l0-.12s0,0,0,0l.08-.1-.1.08.1-.08a3,3,0,0,1-.54.33.48.48,0,0,0-.23.29.49.49,0,0,0,0,.39.5.5,0,0,0,.3.23l.13,0A.55.55,0,0,0,14.45,3Z"/></svg>