<svg xmlns="http://www.w3.org/2000/svg" viewBox="0 0 25 25"><defs><style>.cls-1{fill:#f7e2cb;}.cls-2{fill:#066dba;stroke:#0460a5;}.cls-2,.cls-3{stroke-miterlimit:10;stroke-width:0.25px;}.cls-3{fill:none;stroke:#e5bf9a;}</style></defs><g id="Camada_3" data-name="Camada 3"><path class="cls-1" d="M10,18.21a46.51,46.51,0,0,1,6.93-.43c2.58.16,4.25,1.13,5.16.33s3-5.86,1.4-8.55-15-4.06-18-3.25c0,0-4.29,1-3.86,7.93S10,18.21,10,18.21Z"/><path class="cls-2" d="M24.52,12.58c-.16,2.54-1.35,5.23-2.1,5.89s-1.75.45-3,.18a17.42,17.42,0,0,0-2.5-.38,45.54,45.54,0,0,0-6.79.42c-.52.18-4.34,1.45-6.86-.19a5.07,5.07,0,0,1-2.12-4.23C.68,7,5.18,5.88,5.37,5.84c2.9-.77,16.79.45,18.55,3.48A5.71,5.71,0,0,1,24.52,12.58ZM2.1,12.48a14.36,14.36,0,0,0,0,1.73,4.17,4.17,0,0,0,1.67,3.47c2.25,1.46,6,.09,6.06.08l.1,0a47.26,47.26,0,0,1,7-.43,17.66,17.66,0,0,1,2.64.4c1.14.24,1.8.36,2.17,0,.76-.67,2.73-5.46,1.3-7.94C21.77,7.56,8.82,5.93,5.6,6.78,5.45,6.82,2.41,7.62,2.1,12.48Z"/><path class="cls-2" d="M11.47,3.86c-3.8.77-6.27,6.68-6.75,7.93l-.08,0a1,1,0,0,0-.13,2,1,1,0,0,0,.58-.17c2,3.41,4.13,5.43,6.49,6s2.56-2,2.73-2.17a1,1,0,1,0-.94-1.06.86.86,0,0,0,0,.28,2.48,2.48,0,0,1-1.26,0,11.65,11.65,0,0,1-6.51-4.78c1-2.23,4.93-4.73,6.43-5,.11,0,.45.24.89.64a1,1,0,0,0,.91.9,1,1,0,0,0,1.06-.94,1,1,0,0,0-.88-1C13,5,12.32,3.69,11.47,3.86Z"/><ellipse class="cls-3" cx="20.08" cy="13.23" rx="3" ry="1" transform="translate(2.59 29.74) rotate(-76.75)"/></g></svg>