<svg xmlns="http://www.w3.org/2000/svg" viewBox="0 0 25 25"><defs><style>.cls-1{fill:#f7e2cb;}.cls-2{fill:#066dba;stroke:#0460a5;}.cls-2,.cls-3{stroke-miterlimit:10;stroke-width:0.25px;}.cls-3{fill:none;stroke:#e5bf9a;}</style></defs><g id="chinela_2" data-name="chinela 2"><path class="cls-1" d="M7.08,15.11a47.11,47.11,0,0,1,5.49,4.26C14.39,21.2,15,23,16.22,23s6.09-2.44,6.7-5.48S14.39,4.6,11.56,3.19c0,0-3.87-2.09-8.13,3.39S7.08,15.11,7.08,15.11Z"/><path class="cls-2" d="M21.7,20.49c-1.81,1.8-4.48,3-5.48,3s-1.61-.82-2.38-1.86a16.14,16.14,0,0,0-1.62-1.94,45,45,0,0,0-5.37-4.18c-.51-.2-4.21-1.78-5-4.68A5.1,5.1,0,0,1,3,6.28C7.51.53,11.62,2.67,11.8,2.76,14.48,4.1,24.09,14.22,23.4,17.64A5.83,5.83,0,0,1,21.7,20.49ZM5,5.58a14.08,14.08,0,0,0-1.14,1.3,4.18,4.18,0,0,0-1,3.71c.72,2.58,4.45,4.05,4.49,4.06l.09,0A46.34,46.34,0,0,1,12.91,19a18,18,0,0,1,1.71,2c.7.93,1.12,1.46,1.6,1.46,1,0,5.67-2.29,6.23-5.09C23,14.9,14.32,5.11,11.35,3.62,11.21,3.55,8.39,2.14,5,5.58Z"/><path class="cls-2" d="M17.68,5.32c-3.36-1.94-9.12.85-10.31,1.47l0-.07a1,1,0,0,0-1.41,0A1,1,0,0,0,6.45,8.4c-.8,3.85-.5,6.8.92,8.75s3.28.16,3.49.18a1,1,0,1,0,0-1.41.94.94,0,0,0-.16.23,2.36,2.36,0,0,1-.94-.83A11.58,11.58,0,0,1,8,7.43c2.2-1,6.83-.28,8.15.48A2.4,2.4,0,0,1,16.43,9a1,1,0,0,0,.08,1.28A1,1,0,0,0,18,8.89C18.08,7.15,18.43,5.75,17.68,5.32Z"/><ellipse class="cls-3" cx="17.93" cy="18.04" rx="3" ry="1" transform="translate(-7.13 13.69) rotate(-35.32)"/></g></svg>