<svg id="chinela_1" data-name="chinela 1" xmlns="http://www.w3.org/2000/svg" viewBox="0 0 25 25"><defs><style>.cls-1{fill:#2b2b2b;}.cls-1,.cls-3,.cls-4{stroke:#161616;}.cls-1,.cls-3{stroke-miterlimit:10;}.cls-2{fill:#191919;}.cls-3{fill:#adadad;}.cls-4{fill:none;stroke-linecap:round;stroke-linejoin:round;}</style></defs><path class="cls-1" d="M23.39,16,16.5,22.86a1.13,1.13,0,0,1-1.6,0L3.68,11.64C-.14,7.82,8.34-.67,12.16,3.15L23.39,14.38A1.12,1.12,0,0,1,23.39,16Z"/><path class="cls-2" d="M9,17c.31-.78,1.26-.83,2-1l6.11-7.9L13.5,6.5l-6,5Z"/><path class="cls-3" d="M12.87,3.86C11.49,2.48,3,11,4.39,12.35l4.24,4.24c-1.43-1.43,7-9.92,8.48-8.49Z"/><path class="cls-4" d="M10.75,15.88l4.39,4.39a.79.79,0,0,0,1.12,0l3.68-3.68"/><path class="cls-4" d="M5.8,6.69S7.21,3.86,10,3.86"/></svg>